<svg xmlns="http://www.w3.org/2000/svg" width="330.186" height="222.545" viewBox="0 0 309.549 208.636"><path style="fill:#000" d="M-301.016 248.053c-1.421.042-2.466.192-3.498.455-.534.135-1.224.295-1.536.37-.863.206-2.266.751-2.986 1.137-.355.19-.7.341-.768.341-.225 0-2.614 1.481-3.697 2.304-1.007.764-3.555 3.313-3.555 3.555 0 .063-.21.36-.455.654-.5.597-.554.687-1.536 2.389-.872 1.512-1.935 4.346-2.275 6.057-.14.712-.339 1.66-.426 2.104-.088.446-.124 1.824-.086 3.043.04 1.22.037 1.895-.028 1.934-14.208.623-27.51.9-42.735 1.421 1.559 1.913 3.168 3.184 4.662 5.094l-31.799.955 9.04 7.116c8.177-.12 17.896-.287 23.102-.456 2.12-.07 6.768-.216 6.816-.138-1.893 1.558-3.974 2.883-5.972 4.294-3.425 2.21-6.783 4.518-10.181 6.769-4.337 2.948-8.652 5.894-13.025 8.788-6.654 4.473-10.166 6.84-11.09 7.479-7.58 4.433-12.099 12.598-13.51 20.533-.357 2.12-.767 4.488-.91 5.261-.3 1.635-.303 1.642-.454 2.702-.064.445-.205 1.135-.285 1.535-.414 2.065-.547 2.843-.512 3.015.021.105-.012.24-.085.284-.072.045-5.192.114-11.375.171-21.395.197-21.027.185-25.396.796-3.293.461-10.05 2.154-12.058 3.015-.358.153-.695.285-.74.284-.044 0-.419.15-.853.341-.434.193-.84.342-.91.342-.14 0-.31.072-3.981 1.877-1.425.7-3.237 1.687-4.039 2.19a77.748 77.748 0 0 1-2.73 1.393h-13.252c-.509-.408-1.046-.74-1.962-.74-1.408 0-2.531 2.853-2.531 6.371 0 3.518 1.123 6.37 2.53 6.37.528 0 .753-.64 2.048-.256.137.04.297.108.455.171-.335.31-1.138 1.308-1.763 2.218-.274.4-.638.884-.825 1.08-.186.198-.34.384-.34.427 0 .075-.277.504-1.48 2.219-.28.4-.77 1.184-1.08 1.763-.311.579-.6 1.093-.654 1.137-.056.045-.32.478-.57.967-.249.49-.516 1.004-.596 1.138-.378.633-1.798 3.837-2.418 5.432-.38.979-.75 1.926-.824 2.104-.303.716-1.317 4.139-1.678 5.66-.855 3.602-1.122 5.062-1.309 7.195-.05.578-.126 1.174-.17 1.308-.045.133-.13.999-.17 1.934-.042.934-.102 1.909-.143 2.16-.04.253-.01.62.085.797.153.285.218.289.455.085.149-.127.852-.494 1.564-.824.713-.331 1.402-.69 1.536-.768.285-.167 4.498-2.26 7.593-3.783.11-.053.179-.09.285-.142a50.704 50.704 0 0 0-.256 5.233c0 4.018.469 7.917 1.365 11.66-2.19.134-4.512.135-6.968-.483 1.03 2.239 3.137 5.342.427 8.503 2.48 3.228-.848 6.186-.797 6.712 3.87-1.407 7.282-1.378 12.883-1.08 8.693 14.749 24.723 24.655 43.085 24.655 15.022 0 28.494-6.633 37.653-17.12.569.036 1.246.103 2.445.256 1.858.238 6.137 1.346 10.125 1.707.987.089 2.525.107 3.384.056 2.354.11 4.841-.21 6.91-.312 3.072-.146 9.07-.414 10.637-.484 4.495-.201 5.78-.268 7.024-.341a189.75 189.75 0 0 1 3.64-.142 127.14 127.14 0 0 0 3.555-.171c.712-.046 2.133-.121 3.157-.17 1.024-.05 3.216-.146 4.863-.228a488.89 488.89 0 0 1 5.176-.228c5.05-.182 7.105-.272 7.792-.34.4-.042 1.956-.12 3.47-.172 1.513-.051 3.826-.171 5.147-.256a72.79 72.79 0 0 1 3.555-.142c2.694-.002 6.84-1.046 9.64-2.417 2.79-1.366 5.648-3.55 7.736-5.915 2.55-2.89 4.786-7.443 5.659-11.546.156-.735.29-1.304.313-1.28.023.024.096.234.142.455.896 4.3 2.836 9.978 4.607 13.423 1.474 2.867 4.44 7.744 4.721 7.764.096.007 3.108-1.836 4.635-2.844.455-.3.916-.54 1.053-.54.136 0 .415.207.625.483.21.276.534.676.711.881.178.206.599.7.91 1.081 2.63 3.221 7.15 7.395 9.897 9.13.141.088.753.47 1.365.88.613.41 1.326.876 1.593 1.024.267.149.916.519 1.45.825 1.53.877 4.93 2.531 5.233 2.531.06 0 .305.077.54.2.866.45 7.648 2.49 9.3 2.786.267.048.957.098 1.536.143.578.045 1.444.124 1.934.17 2.766.259 5.163.37 6.882.313 1.728-.057 5.799-.446 6.882-.654 1.588-.305 2.918-.559 3.47-.683 1.144-.257 5.103-1.48 5.346-1.65.09-.061.563-.239 1.052-.397 1.33-.431 4.265-1.822 6.712-3.185.445-.248.953-.514 1.11-.57.154-.053.283-.153.283-.227 0-.072.148-.165.342-.227.193-.061.416-.176.512-.256.168-.14 2.365-1.689 2.872-2.02 1.49-.97 5.135-4.259 7.252-6.54 2.06-2.22 4.86-5.929 6.256-8.333 1.065-1.832 1.221-2.14 1.45-2.645.133-.29.51-1.033.826-1.678 2.226-4.548 3.744-9.722 4.493-15.186.34-2.486.42-3.965.398-7.053-.024-3.276-.133-4.857-.626-7.991-.507-3.226-2.132-8.867-3.128-10.864-.144-.288-.256-.598-.256-.682 0-.276-2.203-4.516-3.157-6.086l-.938-1.536.54-.484c.545-.465 2.628-1.983 4.01-2.957 1.211-.854 1.225-.914.882-1.45-1.795-2.807-6.56-8.183-9.527-10.75-1.628-1.41-6.962-5.347-7.252-5.347-.037 0-.758-.408-1.593-.91-3.18-1.913-8.604-4.288-12.03-5.262-7.178-2.04-14.874-2.803-21.585-2.161-1.546.148-2.855.216-2.9.17-.077-.076-.07-2.343.027-7.962.022-1.254.103-2.364.17-2.474.129-.207 2.567-.149 6.002.142 1.819.154 1.833.138 1.763-1.65.68-8.624.487-17.962-.398-28.353-.09-.094-1.485-.09-3.669.028-1.938.105-4.56.257-5.83.313-3.528.235-7.422.682-10.21 2.19-1.238.683-3.325 2.583-4.55 4.152-.646.828-1.998 3.4-2.275 4.323-.347 1.156-.654 3.373-.654 4.891-.01 1.486-.01 1.491-.37 1.337-.646-.276-2.469-.433-3.697-.313-1.283.125-3.208.696-3.868 1.137-1.51 1.011-2.021 1.269-2.332 1.195-.187-.045-1.423-.262-2.758-.484-1.335-.221-3.014-.52-3.726-.654-.712-.133-1.876-.354-2.588-.483a606.574 606.574 0 0 1-4.465-.825c-.222-.043-.871-.136-1.45-.227-.579-.092-2.865-.513-5.09-.91-3.82-.682-4.569-.815-5.347-.967-.178-.035-1.423-.227-2.759-.455a204.278 204.278 0 0 1-4.038-.74c-.89-.174-3.095-.594-4.92-.91-4.108-.711-4.067-.696-4.067-.881 0-.194.626-1.034 1.963-2.73a67.008 67.008 0 0 0 1.535-2.02c.267-.377.687-.948.939-1.251.252-.303 1.51-1.92 2.815-3.612 2.722-3.528 3.17-4.118 3.84-4.948.267-.331.646-.801.824-1.052.178-.252.511-.69.74-.967.228-.277.755-.965 1.194-1.536 1.584-2.056 3.343-4.324 4.01-5.176.374-.478.776-1.025.91-1.223.134-.197.378-.456.512-.597.265-.28.401-.509 2.332-3.043 1.442-1.893 1.907-2.208 4.124-2.9.667-.21 1.305-.42 1.393-.484.09-.064.575-.241 1.11-.398a30.507 30.507 0 0 0 1.99-.683c.553-.215 1.21-.43 1.479-.483 1.44-.488.616-2.594.853-3.811.055-3.495.128-3.868.796-3.868.62-.278 1.273-.665 1.934-.91.444-.22 1.752-.467 2.198-.71.428 0 .429-.575-1.26-6.485-.242-.846-.437-1.805-.443-2.161l-.011-.655 1.08-.056c.599-.03 1.152-.098 1.223-.142.136-.084.103-.32-.312-2.645-.43-2.41-1.499-5.229-2.617-6.854-.276-.401-.512-.773-.512-.825 0-.257-1.591-2.258-2.701-3.384-3.811-3.867-9.341-6.236-14.646-6.285-.57-.006-1.09-.014-1.564 0zm-38.563 92.853c1.003-.01 2.367-.02 3.868 0 3 .04 9.126.138 13.622.199 4.496.06 8.793.113 9.527.114.735 0 1.337.048 1.337.113 0 .148-2.249 1.942-6.143 4.892a341.638 341.638 0 0 0-5.887 4.578c-.52.416-1.2.93-1.507 1.138-.307.208-.66.378-.768.37-.107-.01-.726-.398-1.393-.882a129.74 129.74 0 0 0-1.792-1.28c-.312-.214-.995-.696-1.536-1.08-1.02-.725-4.795-3.38-7.82-5.49-2.09-1.455-3.267-2.438-3.157-2.615.022-.036.646-.047 1.65-.057zm81.648 3.81c.291 0 .807 1.672 1.365 4.437.495 2.454.513 2.377-1.337 3.1-2.146.838-4.519 1.87-5.972 2.616-2.798 1.438-6.955 4.005-7.963 4.92-.184.167-.39.313-.455.313-.322 0-4.972 4.112-6.854 6.057-4.873 5.04-8.897 11.031-11.433 17.007-.336.792-.705 1.667-.824 1.934-.443.987-1.55 4.191-1.963 5.716a59.784 59.784 0 0 0-2.047 14.077c-.018.82-.087 1.51-.143 1.564-.054.055-.2-.172-.312-.512-1.248-3.78-4.827-8.618-8.276-11.176-.782-.58-1.422-1.093-1.422-1.138 0-.044.196-.29.427-.569.23-.279.925-1.22 1.564-2.076 1.13-1.511 1.836-2.417 3.355-4.322a365.01 365.01 0 0 0 4.181-5.432 83.912 83.912 0 0 1 1.479-1.877c.326-.4.7-.915.853-1.138.152-.222.67-.892 1.137-1.478a946.585 946.585 0 0 0 5.29-6.769 2428.16 2428.16 0 0 1 7.565-9.754c.837-1.08.992-1.301 1.791-2.275.623-.76 1.95-2.483 4.408-5.774.613-.82.96-1.12 1.565-1.365.427-.172 1.448-.639 2.275-1.023.827-.385 1.551-.683 1.592-.683.066 0 1.813-.79 4.21-1.877 2.707-1.228 5.746-2.502 5.943-2.502zm18.741 27.53c2.042-.037 4.97.1 6.797.397 2.08.338 5.425 1.278 7.366 2.076 1.617.666 4.488 2.236 5.318 2.901l.483.398-.398.54c-.21.303-1.38 1.775-2.588 3.271-1.207 1.496-2.283 2.897-2.417 3.1-.327.497-5.696 7.26-6.114 7.707-.126.133-.476.572-.797.995-.32.423-.627.782-.682.768-.055-.01-.681-.232-1.394-.484-.712-.25-1.654-.506-2.076-.568-.421-.063-.808-.185-.881-.285-.104-.14-.757-2.63-.939-3.583-.086-.454-2.702-10.965-2.9-11.66-.128-.446-.481-1.777-.768-2.958-.416-1.705-.472-2.201-.313-2.36.159-.16 1.078-.234 2.303-.256zm-12.03 2.7c.397-.041.425.027 1.82 5.546a725.794 725.794 0 0 0 1.678 6.541c.429 1.57 1.918 7.58 1.99 8.02.054.325-.157.625-1.051 1.536-2.047 2.083-2.97 3.623-3.669 6.029-.661 2.28-.57 5.13.256 7.621.184.555.278 1.055.227 1.138-.05.083-.524.404-1.08.71-.556.308-1.322.737-1.678.94-.356.202-1.181.674-1.849 1.051-.667.378-1.994 1.118-2.929 1.65-.934.531-3.302 1.862-5.26 2.958-1.96 1.095-3.813 2.139-4.124 2.332-1.188.735-1.176.749-1.991-1.053-1.345-2.97-2.166-5.843-2.702-9.385-.301-1.989-.354-2.791-.284-5.26.046-1.603.127-3.036.17-3.214.044-.178.136-.734.2-1.223.289-2.224 1.246-5.542 2.303-8.02 2.098-4.919 6.463-10.577 10.437-13.537 1.29-.96 2.966-2.127 3.356-2.304.134-.06.513-.265.825-.455 1.186-.722 2.97-1.58 3.356-1.62zm-186.157.143c2.511-.048 4.895.142 6.882.54 2.452.492 5.801 1.472 5.801 1.707 0 .11-.362.957-.796 1.877-.434.919-1.115 2.408-1.536 3.298-.42.89-1.109 2.352-1.535 3.242-.427.89-.939 1.973-1.138 2.418-1.057 2.36-1.464 3.157-1.592 3.157-.078 0-.865-.132-1.735-.313-6.19-1.293-12.62.828-16.978 5.602-.66.723-2.048 2.687-2.048 2.901 0 .043-.173.354-.398.711-1.184 1.876-2.144 6.204-1.962 8.873.167 2.448.6 4.461 1.223 5.887.213.49.249.815.142.881-.091.057-.886.195-1.792.313s-2.462.321-3.44.455c-.98.134-2.225.286-2.76.341-.534.055-2.09.25-3.469.427-.95.122-1.606.217-2.161.284a32.185 32.185 0 0 1-1.934-10.977c0-9.859 4.432-18.684 11.404-24.6.026-.02.059-.037.085-.057 1.138-.858 2.572-1.851 3.299-2.275 1.688-.983 5.017-2.52 6.37-2.93.801-.24 1.695-.508 1.963-.596.831-.274 4.421-.934 5.545-1.024a42.964 42.964 0 0 1 2.56-.142zm18.57 5.233c.72.003 5.229 3.615 7.082 5.687.488.547.935 1.09 1.365 1.621a32.182 32.182 0 0 1 2.474 3.953c-.005.005.006.025 0 .029-.106.066-3.797.124-8.19.142-6.766.027-8.002-.005-8.077-.2-.048-.125.176-.79.512-1.478s1-2.076 1.478-3.1c.479-1.024.984-2.093 1.11-2.36 1.241-2.647 2.098-4.295 2.246-4.294zm202.632.199c.076-.024.146.002.227.028.798.26 4.195 4.008 5.603 6.171 1.24 1.907 2.33 3.865 2.787 5.034.24.612.543 1.372.682 1.678.52 1.14 1.445 4.486 1.763 6.399.387 2.327.41 3.422.228 7.11-.15 3.024-.257 4.3-.569 5.687-.799 3.548-1.853 6.216-3.84 9.783-1.258 2.26-4.58 6.33-6.54 8.048-.437.383-.931.84-1.11.995-3.96 3.457-10.193 6.374-15.697 7.338-1.38.24-6.457.634-6.598.511-.015-.012-.882-.064-1.906-.113-1.023-.05-2.281-.16-2.815-.256-7.163-1.307-13.272-4.468-18.314-9.499-1.848-1.844-4.091-4.706-3.868-4.92.157-.15 3.763-2.166 6.057-3.384.757-.402 2.084-1.104 2.93-1.593.846-.488 2.01-1.14 2.588-1.45a141.133 141.133 0 0 0 4.237-2.332c.594-.343 1.129-.626 1.195-.626.066 0 .229-.105.37-.227.597-.523.918-.467 1.82.341 5.176 4.64 12.935 4.31 17.631-.74 1.347-1.447 1.812-2.115 2.616-3.753.786-1.603 1.164-4.766.797-6.797-.104-.579-.235-1.183-.256-1.337-.022-.153-.08-.307-.142-.37-.062-.061-.114-.225-.114-.34 0-.436-1.212-2.734-1.962-3.726l-.768-1.024 1.08-1.422c3.408-4.46 5.015-6.555 7.31-9.498a716.841 716.841 0 0 0 2.758-3.555c1.25-1.636 1.59-2.09 1.82-2.162zm-202.68 31.482c.07-.073 1.03.21 2.133.625 1.822.687 3.864 1.434 5.802 2.105.4.138.874.293 1.052.37.178.075.962.393 1.763.682 1.112.4 1.839.66 2.418.882a31.96 31.96 0 0 1-2.39 5.545c-3.116-1.137-8.5-3.045-11.034-3.896-.801-.269-1.52-.554-1.62-.654-.14-.136-.022-.533.454-1.536.35-.737.786-1.942.967-2.673.181-.731.385-1.377.455-1.45zm-32.392 23.29 25.737 1.792a32.187 32.187 0 0 1-10.834 1.877 32.066 32.066 0 0 1-14.903-3.668z" transform="translate(497.632 -248.044)"/></svg>